<?xml version="1.0" standalone="no"?>
<!DOCTYPE svg PUBLIC "-//W3C//DTD SVG 20010904//EN"
 "http://www.w3.org/TR/2001/REC-SVG-20010904/DTD/svg10.dtd">
<svg version="1.0" xmlns="http://www.w3.org/2000/svg"
 width="1160.000000pt" height="1160.000000pt" viewBox="0 0 1160.000000 1160.000000"
 preserveAspectRatio="xMidYMid meet">
<metadata>
Created by potrace 1.11, written by Peter Selinger 2001-2013
</metadata>
<g transform="translate(0.000000,1160.000000) scale(0.100000,-0.100000)"
fill="#000000" stroke="none">
<path d="M3628 9785 c-3 -3 -92 -8 -199 -11 -247 -6 -250 -7 -244 -13 6 -6 19
-8 95 -16 94 -10 124 -13 155 -20 17 -3 70 -12 119 -21 72 -12 187 -35 295
-59 47 -11 148 -37 161 -42 8 -3 24 -8 35 -10 33 -7 50 -11 50 -12 0 -1 81
-28 180 -62 99 -33 194 -66 210 -74 28 -12 63 -26 75 -30 3 -1 19 -7 35 -14
17 -8 39 -17 50 -22 55 -22 364 -174 388 -191 15 -11 27 -16 27 -12 0 4 8 0
18 -8 9 -8 55 -36 102 -63 180 -102 425 -272 612 -423 51 -42 193 -166 242
-212 140 -130 386 -387 394 -411 2 -5 -19 4 -48 21 -28 16 -53 30 -56 30 -3 0
-18 9 -33 20 -36 25 -347 180 -431 214 -36 15 -74 31 -85 36 -68 31 -135 58
-135 54 0 -3 -10 1 -22 8 -13 7 -25 13 -28 13 -3 0 -30 9 -60 20 -30 11 -57
20 -60 20 -3 1 -12 5 -20 8 -44 19 -375 113 -465 131 -5 2 -37 8 -70 15 -33 8
-67 15 -75 16 -8 2 -15 4 -15 5 0 1 -11 3 -25 4 -14 1 -38 5 -55 9 -48 10
-108 19 -137 21 -16 0 -28 3 -28 6 0 3 -15 6 -33 7 -17 0 -57 4 -87 8 -103 12
-125 14 -225 22 -55 4 -217 7 -360 7 -237 1 -307 -2 -490 -20 -98 -9 -118 -12
-155 -18 -19 -3 -51 -8 -70 -10 -71 -9 -118 -17 -210 -36 -30 -6 -68 -13 -85
-16 -42 -8 -60 -12 -60 -14 0 -1 -11 -3 -25 -5 -14 -2 -68 -16 -120 -30 -52
-14 -104 -27 -115 -30 -36 -9 -190 -56 -210 -65 -18 -8 -56 -20 -80 -26 -5 -2
-57 -21 -115 -44 -58 -23 -118 -46 -135 -52 -16 -6 -45 -20 -63 -30 -18 -10
-36 -18 -41 -18 -5 0 -64 -27 -132 -60 -243 -118 -442 -232 -606 -347 -35 -23
-63 -40 -63 -37 0 3 -7 -2 -16 -11 -9 -8 -44 -34 -78 -57 -33 -23 -67 -48 -74
-55 -7 -7 -17 -13 -20 -13 -4 0 -13 -10 -21 -22 -13 -22 -13 -22 5 -8 19 16
36 24 184 93 161 74 239 107 385 158 61 22 117 42 125 46 8 3 20 7 27 9 6 1
47 13 90 27 70 23 215 62 268 73 11 2 54 13 95 23 41 10 78 17 83 14 4 -2 7 0
7 5 0 5 8 9 18 9 16 -1 93 11 137 20 21 4 31 6 110 18 28 4 58 9 68 11 9 1 54
6 100 10 45 3 85 8 88 10 28 16 594 24 774 11 179 -14 220 -17 250 -23 17 -3
48 -7 70 -9 70 -8 120 -14 120 -15 0 -2 27 -7 72 -14 32 -4 130 -24 263 -52
14 -3 52 -12 85 -21 33 -8 67 -16 75 -18 42 -8 130 -37 135 -44 2 -5 -26 -9
-63 -9 -37 -1 -96 -4 -132 -7 -36 -4 -90 -8 -120 -10 -30 -2 -55 -5 -55 -5 0
-2 -23 -5 -145 -21 -47 -6 -94 -13 -105 -16 -11 -2 -35 -6 -54 -9 -19 -2 -52
-9 -75 -14 -22 -5 -56 -11 -74 -15 -18 -3 -61 -12 -95 -21 -62 -15 -103 -24
-122 -28 -5 -1 -16 -5 -22 -9 -7 -5 -13 -6 -13 -3 0 5 -87 -18 -120 -31 -8 -3
-23 -8 -33 -10 -10 -1 -86 -26 -170 -54 -183 -62 -376 -139 -535 -216 -64 -31
-119 -57 -122 -58 -6 -1 -78 -40 -135 -72 -22 -13 -53 -30 -70 -38 -16 -9 -43
-24 -60 -35 -16 -11 -43 -27 -60 -36 -68 -38 -281 -179 -288 -191 -4 -7 -14
-13 -22 -13 -7 0 -15 -3 -17 -8 -1 -4 -28 -25 -58 -47 -50 -35 -101 -75 -140
-108 -8 -7 -37 -31 -64 -53 -27 -21 -59 -48 -71 -59 -11 -11 -49 -45 -84 -75
-108 -93 -311 -301 -421 -430 -12 -14 -31 -36 -43 -50 -32 -37 -151 -188 -198
-250 -101 -136 -299 -448 -299 -470 0 -6 -4 -10 -10 -10 -5 0 -10 -6 -10 -12
0 -7 -9 -24 -20 -38 -11 -14 -20 -33 -20 -42 0 -10 -4 -18 -10 -18 -5 0 -10
-6 -10 -14 0 -8 -7 -21 -15 -30 -9 -8 -15 -17 -14 -18 0 -2 -24 -57 -55 -123
-85 -180 -143 -314 -171 -395 -1 -3 -5 -12 -8 -20 -10 -23 -37 -102 -37 -108
0 -3 6 3 14 13 8 11 12 23 10 27 -3 5 0 8 5 8 6 0 11 4 11 9 0 28 310 488 375
557 5 6 19 23 30 38 88 121 332 381 525 559 69 64 301 254 350 287 12 8 32 24
45 35 12 11 55 43 95 70 80 56 74 52 179 117 42 26 81 51 86 56 6 4 17 11 25
15 8 3 42 22 75 41 33 20 85 48 115 63 30 15 57 30 60 33 7 7 222 113 235 116
6 1 35 13 65 27 64 30 200 88 215 91 13 4 43 15 75 28 35 14 201 69 223 73 9
2 22 7 27 10 5 3 19 8 31 10 17 4 19 2 9 -10 -7 -8 -18 -15 -25 -15 -8 0 -15
-3 -17 -7 -1 -5 -39 -35 -83 -67 -72 -54 -213 -165 -241 -191 -6 -5 -45 -39
-85 -75 -81 -71 -333 -321 -389 -387 -19 -22 -53 -61 -75 -88 -22 -26 -49 -57
-61 -70 -11 -12 -67 -85 -125 -161 -57 -77 -107 -140 -111 -142 -5 -2 -8 -8
-8 -13 0 -9 -36 -65 -50 -79 -3 -3 -11 -17 -19 -32 -8 -16 -18 -28 -23 -28 -4
0 -8 -5 -8 -10 0 -6 -25 -49 -55 -95 -30 -47 -55 -89 -55 -93 0 -4 -11 -24
-25 -43 -28 -43 -171 -320 -204 -399 -13 -30 -36 -82 -51 -115 -14 -33 -32
-76 -39 -95 -8 -19 -19 -48 -26 -65 -14 -32 -113 -321 -120 -352 -3 -10 -16
-58 -30 -108 -28 -97 -28 -96 -45 -170 -15 -62 -19 -82 -26 -120 -3 -16 -9
-48 -14 -71 -5 -22 -12 -60 -15 -83 -3 -24 -7 -46 -10 -50 -2 -4 -7 -30 -10
-57 -3 -27 -8 -65 -10 -84 -3 -19 -8 -57 -10 -85 -3 -27 -8 -70 -11 -95 -8
-66 -13 -139 -19 -295 -7 -158 -7 -147 -3 -197 2 -21 0 -38 -5 -38 -4 0 -5 -5
-1 -11 3 -6 8 -61 10 -122 5 -161 26 -422 34 -422 1 0 3 -18 5 -40 2 -22 6
-53 10 -70 3 -16 8 -46 10 -65 2 -19 6 -45 8 -56 3 -12 8 -38 11 -58 3 -19 10
-55 15 -78 12 -53 20 -94 27 -133 15 -81 19 -30 19 238 0 292 7 422 29 584 3
21 8 61 12 88 5 42 30 193 49 295 6 32 13 64 15 70 1 3 2 8 1 12 0 4 4 19 10
34 5 15 12 41 15 58 10 65 12 74 23 93 5 11 8 23 5 26 -3 3 -2 12 2 19 5 7 9
18 10 23 1 6 12 44 25 85 12 41 23 80 25 85 3 17 34 109 43 130 5 11 16 40 25
65 8 25 21 59 27 75 7 17 13 35 14 40 2 6 12 32 24 57 11 26 21 54 21 62 0 9
5 16 10 16 6 0 10 5 10 10 0 30 184 402 263 532 26 42 47 81 47 87 0 6 4 11 8
11 5 0 15 12 23 28 18 36 194 297 230 342 16 19 68 85 116 145 117 147 195
234 358 399 130 131 128 129 109 65 -9 -29 -17 -60 -19 -68 -2 -9 -8 -34 -14
-56 -5 -22 -13 -56 -16 -75 -3 -19 -8 -42 -10 -50 -2 -8 -6 -32 -9 -52 -3 -21
-8 -53 -11 -71 -34 -212 -39 -596 -11 -807 2 -19 7 -57 11 -84 3 -27 8 -59 10
-70 6 -28 16 -77 20 -101 1 -11 8 -38 13 -60 6 -22 13 -51 16 -65 3 -14 9 -40
15 -58 5 -18 10 -34 11 -37 7 -36 86 -260 122 -345 203 -481 516 -884 950
-1225 53 -41 98 -75 102 -75 3 0 17 -10 32 -23 14 -12 27 -20 29 -17 2 3 14
-4 27 -16 39 -34 149 -99 295 -172 200 -100 414 -180 608 -228 17 -4 35 -8 40
-10 45 -11 114 -26 135 -30 14 -2 41 -7 60 -10 178 -31 364 -47 503 -44 29 1
57 1 62 0 6 -2 12 -2 15 -1 3 1 82 4 175 6 94 3 202 7 240 10 39 2 106 7 149
10 44 2 96 7 115 9 20 3 65 8 101 11 75 7 107 11 205 25 39 6 86 13 105 15 67
7 125 15 140 20 8 2 31 6 50 9 32 5 227 42 275 52 11 3 40 9 65 14 25 5 56 12
70 15 14 3 36 8 50 11 14 3 34 8 45 11 23 8 31 10 65 17 21 5 61 14 93 22 4 1
8 2 10 4 3 2 23 7 61 15 16 3 36 10 45 14 9 5 19 9 24 10 31 3 137 34 317 94
69 22 130 42 135 43 6 2 35 12 65 24 30 12 62 23 70 25 8 2 16 4 18 5 1 2 5 3
10 5 4 1 21 7 37 14 17 7 35 14 40 15 6 2 24 8 40 15 17 6 44 17 60 23 17 6
34 15 40 20 5 4 15 8 21 8 7 0 43 14 81 32 37 18 73 32 78 33 12 1 47 17 330
155 121 59 290 146 375 194 84 47 158 86 162 86 4 0 8 3 8 8 0 4 28 23 63 42
34 18 68 40 75 47 7 7 20 13 28 13 8 0 14 5 14 10 0 6 5 10 10 10 6 0 16 4 23
10 32 26 239 160 247 160 4 0 10 4 12 8 2 5 26 23 53 42 28 19 55 38 60 42 6
5 44 33 85 63 85 61 91 66 215 164 111 88 157 126 210 171 23 20 48 41 56 48
8 6 29 25 48 42 18 16 37 30 42 30 5 0 9 7 9 15 0 8 4 15 8 15 11 0 80 62 230
208 78 76 133 121 142 118 8 -2 40 -14 70 -25 96 -37 203 -14 278 60 111 109
109 285 -3 396 -66 64 -190 88 -282 55 -61 -22 -127 -86 -154 -146 -22 -52
-31 -136 -17 -174 7 -20 3 -25 -35 -41 -87 -37 -249 -89 -300 -95 -20 -2 -40
-7 -44 -9 -8 -5 -61 -15 -118 -22 -108 -13 -141 -16 -240 -17 -97 -1 -150 3
-270 17 -48 6 -91 14 -183 36 -106 25 -103 25 -122 32 -8 3 -44 15 -80 28 -36
12 -82 30 -102 40 -21 11 -42 19 -49 19 -6 0 -24 9 -40 21 -16 11 -29 17 -29
13 0 -4 -8 0 -17 8 -10 9 -34 23 -53 33 -149 75 -400 283 -501 415 -13 18 -36
45 -51 61 -16 17 -28 34 -28 39 0 5 -6 15 -14 23 -21 21 -106 154 -106 165 0
6 -3 12 -8 14 -25 11 -140 292 -178 433 -6 23 -36 163 -40 190 -10 63 -16 94
-26 130 -6 22 -12 49 -14 60 -3 18 -11 55 -27 120 -17 70 -41 155 -53 190 -7
23 -15 50 -17 61 -2 10 -7 26 -10 34 -3 8 -13 38 -22 65 -24 75 -65 188 -76
207 -5 10 -9 22 -9 28 0 6 -9 32 -21 58 -12 26 -25 56 -29 67 -31 73 -55 126
-76 168 -13 26 -20 47 -16 47 4 0 2 4 -3 8 -6 4 -32 50 -58 102 -52 104 -90
174 -131 238 -14 23 -26 44 -26 47 0 3 -8 18 -18 33 -64 93 -122 185 -122 193
0 5 -4 9 -10 9 -5 0 -10 7 -10 15 0 8 -4 15 -8 15 -4 0 -16 13 -25 30 -15 24
-119 167 -157 213 -156 192 -230 276 -385 431 -239 239 -423 394 -695 583
-106 73 -294 193 -304 193 -2 0 -34 18 -71 41 -105 63 -434 221 -595 284 -129
51 -411 148 -465 160 -11 2 -72 18 -135 34 -63 17 -116 30 -118 30 -1 1 -12 3
-25 6 -12 3 -33 7 -47 9 -14 3 -50 10 -80 16 -30 6 -71 13 -90 16 -19 3 -42 7
-50 10 -8 2 -38 6 -65 9 -28 4 -61 8 -75 11 -41 7 -90 13 -170 19 -41 4 -93 8
-115 11 -22 2 -100 6 -173 8 -73 3 -136 7 -141 10 -4 3 -10 3 -13 1z"/>
</g>
</svg>
