<svg version="1.1" id="icon__vector" xmlns="http://www.w3.org/2000/svg" xmlns:xlink="http://www.w3.org/1999/xlink" x="0px" y="0px"
	 viewBox="0 0 512 512" style="enable-background:new 0 0 512 512;" xml:space="preserve">
<g>
	<path d="M468,205.9c-5-7.2-14.7-9.3-22.1-4.3c-7.2,4.8-9.3,14.7-4.3,22.1c14.7,22,22.5,47.7,22.5,74.4c0,26.8-7.7,52.5-22.5,74.4
		c-4.8,7.2-2.9,17.1,4.5,22.1c2.7,1.9,5.8,2.7,8.9,2.7c5.1,0,10.1-2.4,13-7c18.3-27.3,28-59.2,28-92.3S486.4,233.2,468,205.9z"/>
	<path d="M422.4,231.8c-5-7.4-14.7-9.3-22.1-4.3c-7.4,5-9.3,14.7-4.3,22.1c9.8,14.4,14.9,31.2,14.9,48.5c0,17.5-5.1,34.1-14.9,48.5
		c-5,7.2-3.1,17.1,4.3,22.1c2.7,1.9,5.8,2.7,8.9,2.7c5.1,0,10.3-2.4,13.2-7c13.4-19.5,20.4-42.5,20.4-66.4
		C442.8,274.5,435.8,251.5,422.4,231.8z"/>
	<path d="M334.6,228.6c-6.3-64-60.4-114-126-114c-54.4,0-102.6,35-119.9,85.7c-41,6-72.7,41.3-72.7,84c0,46.8,38.2,85.1,85.2,85.1
		h218.1c39.3,0,71.3-31.9,71.3-71.2C390.7,264.1,366.7,235.6,334.6,228.6z M319.4,337.5H101.2c-29.3,0-53.3-23.8-53.3-53.2
		s23.8-53.2,53.3-53.2c14.2,0,27.6,5.5,37.7,15.6c6.2,6.2,16.3,6.2,22.6,0c6.2-6.2,6.2-16.3,0-22.6c-11-11-24.5-18.5-39.3-22.3
		c15.1-33.3,48.7-55.6,86.3-55.6c52.3,0,94.8,42.5,94.8,94.7c0,10.1-1.5,20.1-4.8,29.7c-2.7,8.4,1.7,17.3,10.1,20.2
		c1.7,0.5,3.4,0.9,5,0.9c6.7,0,12.9-4.3,15.1-11c2.1-6.3,3.6-12.7,4.6-19.2c14.7,5.7,25.2,19.9,25.2,36.5
		C358.8,319.8,341,337.5,319.4,337.5z"/>
</g>
</svg>
