<svg version="1.1" class="icon__vector" xmlns="http://www.w3.org/2000/svg" xmlns:xlink="http://www.w3.org/1999/xlink" x="0px" y="0px"
	 viewBox="0 0 512 512" style="enable-background:new 0 0 512 512;" xml:space="preserve">
<title>Pinterest</title>
<g>
	<path d="M2.5,256c0,103.8,62.4,193,151.7,232.2c-0.7-17.7-0.1-39,4.4-58.2c4.9-20.6,32.6-138.1,32.6-138.1s-8.1-16.2-8.1-40.1
		c0-37.6,21.8-65.6,48.9-65.6c23.1,0,34.2,17.3,34.2,38.1c0,23.2-14.8,57.8-22.4,90c-6.4,26.9,13.5,48.8,40,48.8
		c48,0,80.4-61.7,80.4-134.8c0-55.6-37.4-97.1-105.5-97.1C181.9,131,134,188.4,134,252.4c0,22.1,6.5,37.7,16.7,49.7
		c4.7,5.5,5.3,7.8,3.6,14.1c-1.2,4.7-4,15.9-5.2,20.3c-1.7,6.4-6.9,8.7-12.7,6.3c-35.4-14.5-51.9-53.2-51.9-96.8
		c0-72,60.7-158.4,181.2-158.4c96.8,0,160.5,70,160.5,145.2c0,99.4-55.3,173.7-136.8,173.7c-27.4,0-53.1-14.8-61.9-31.6
		c0,0-14.7,58.4-17.8,69.7c-5.4,19.5-15.9,39.1-25.5,54.3c22.8,6.7,46.9,10.4,71.8,10.4c140,0,253.5-113.5,253.5-253.5
		C509.5,116,396,2.5,256,2.5C116,2.5,2.5,116,2.5,256z"/>
</g>
</svg>
