<svg version="1.1" class="icon__vector" xmlns="http://www.w3.org/2000/svg" xmlns:xlink="http://www.w3.org/1999/xlink" x="0px" y="0px"
	 viewBox="0 0 512 512" style="enable-background:new 0 0 512 512;" xml:space="preserve">
<title>SoundCloud</title>
<path d="M174.2,361.8l3.6-53.6L174.2,192c-0.1-1.5-0.7-2.7-1.7-3.8c-1-1-2.2-1.6-3.7-1.6c-1.3,0-2.5,0.5-3.6,1.6
	c-1,1-1.6,2.3-1.6,3.8l-3.1,116.2l3.1,53.6c0.1,1.5,0.7,2.7,1.7,3.7c1,1,2.1,1.4,3.4,1.4C172.1,366.9,173.9,365.2,174.2,361.8z
	 M240,355.3l2.4-46.9l-2.7-130.2c0-2.4-1-4.1-2.9-5.3c-1.2-0.7-2.4-1.1-3.6-1.1s-2.4,0.4-3.6,1.1c-1.9,1.2-2.9,3-2.9,5.3l-0.2,1.3
	l-2.2,128.7c0,0.1,0.8,17.6,2.4,52.4v0.2c0,1.5,0.4,2.7,1.3,3.8c1.3,1.6,3,2.4,5.1,2.4c1.6,0,3.1-0.7,4.4-2c1.3-1,2-2.5,2-4.4
	L240,355.3z M7.8,279.8l4.4,28.4l-4.4,28c-0.3,1.3-1,2-2,2s-1.7-0.7-2-2l-3.8-28l3.8-28.4c0.3-1.3,1-2,2-2S7.5,278.4,7.8,279.8z
	 M26.9,262.2l5.8,46l-5.8,45.1c-0.3,1.3-1,2-2.2,2c-1.3,0-2-0.7-2-2.2l-5.1-44.9l5.1-46c0-1.3,0.7-2,2-2
	C25.9,260.2,26.6,260.9,26.9,262.2z M47.3,253.8l5.6,54.4l-5.6,52.7c0,1.6-0.8,2.4-2.4,2.4c-1.5,0-2.4-0.8-2.7-2.4l-4.7-52.7
	l4.7-54.4c0.3-1.8,1.2-2.7,2.7-2.7C46.5,251.1,47.3,252,47.3,253.8z M68.2,252.2l5.1,56l-5.1,54.2c-0.3,1.9-1.3,2.9-3.1,2.9
	c-1.9,0-2.9-1-2.9-2.9l-4.7-54.2l4.7-56c0-1.9,1-2.9,2.9-2.9C66.9,249.3,67.9,250.3,68.2,252.2z M89.1,256.2l4.7,52l-4.7,54.7
	c-0.3,2.4-1.5,3.6-3.6,3.6c-0.9,0-1.7-0.3-2.3-1c-0.7-0.7-1-1.5-1-2.6l-4.4-54.7l4.4-52c0-0.9,0.3-1.7,1-2.3c0.7-0.7,1.4-1,2.3-1
	C87.6,252.9,88.8,254,89.1,256.2z M110,223.8l4.7,84.4l-4.7,54.7c0,1-0.4,2-1.1,2.8c-0.7,0.8-1.6,1.2-2.7,1.2c-2.4,0-3.7-1.3-4-4
	l-4-54.7l4-84.4c0.3-2.7,1.6-4,4-4c1,0,1.9,0.4,2.7,1.2C109.6,221.8,110,222.7,110,223.8z M130.9,204.7l4.2,104l-4.2,54.2
	c0,1.2-0.4,2.2-1.2,3c-0.8,0.8-1.8,1.2-3,1.2c-2.7,0-4.1-1.4-4.4-4.2l-3.6-54.2l3.6-104c0.3-2.8,1.8-4.2,4.4-4.2
	c1.2,0,2.2,0.4,3,1.2C130.5,202.5,130.9,203.5,130.9,204.7z M152.7,195.8l4,112.4l-4,53.8c-0.3,3.1-1.9,4.7-4.9,4.7
	c-2.8,0-4.4-1.6-4.7-4.7l-3.6-53.8l3.6-112.4c0-1.3,0.5-2.5,1.4-3.4c1-1,2-1.4,3.2-1.4c1.3,0,2.4,0.5,3.3,1.4
	C152,193.3,152.5,194.4,152.7,195.8z M195.8,194.9l3.3,113.3l-3.3,53.1c0,1.5-0.6,2.8-1.7,3.9s-2.4,1.7-3.9,1.7
	c-1.5,0-2.7-0.5-3.8-1.6c-1-1-1.6-2.4-1.8-4l-3.1-53.1l3.1-113.3c0-1.6,0.6-3,1.7-4c1.1-1,2.4-1.6,3.9-1.6c1.5,0,2.8,0.5,3.9,1.6
	C195.2,191.9,195.8,193.3,195.8,194.9z M217.8,199.1l3.1,109.3l-3.1,52.4c0,1.6-0.6,3-1.8,4.2c-1.2,1.2-2.6,1.8-4.2,1.8
	c-1.6,0-3-0.6-4.2-1.8c-1.2-1.2-1.9-2.6-2-4.2l-2.7-52.4l2.7-109.3c0.1-1.8,0.8-3.3,2-4.4s2.6-1.8,4.2-1.8c1.6,0,3,0.6,4.1,1.8
	S217.6,197.3,217.8,199.1z M264.9,308.4l-3.1,51.3c0,1.9-0.7,3.6-2,4.9c-1.3,1.3-3,2-4.9,2s-3.6-0.7-4.9-2c-1.3-1.3-2.1-3-2.2-4.9
	l-1.3-25.3l-1.3-26l2.7-141.3v-0.7c0.3-2.2,1.2-4,2.7-5.3c1.3-1,2.8-1.6,4.4-1.6c1.2,0,2.3,0.4,3.3,1.1c2.1,1.2,3.3,3.1,3.6,5.8
	L264.9,308.4z M512,304.2c0,17.3-6.1,32.1-18.4,44.3c-12.3,12.2-27.1,18.3-44.4,18.3H274.4c-1.9-0.3-3.6-1.1-4.9-2.4
	c-1.3-1.3-2-3-2-4.9V159.8c0-3.4,2.1-5.9,6.2-7.3c12.6-5,26-7.6,40.2-7.6c28.9,0,53.9,9.7,75.1,29.2c21.2,19.5,33,43.4,35.6,71.9
	c7.9-3.3,16-4.9,24.4-4.9c17.3,0,32.1,6.1,44.4,18.4C505.9,271.9,512,286.7,512,304.2z"/>
</svg>
