<svg version="1.1" class="icon__vector" xmlns="http://www.w3.org/2000/svg" xmlns:xlink="http://www.w3.org/1999/xlink" x="0px" y="0px"
	 viewBox="0 0 512 512" style="enable-background:new 0 0 512 512;" xml:space="preserve">
<title>Instagram</title>
<g>
	<path d="M352.8,40H159.2C93.5,40,40,93.5,40,159.2v193.6C40,418.5,93.5,472,159.2,472h193.6c65.7,0,119.2-53.5,119.2-119.2V159.2
		C472,93.5,418.5,40,352.8,40z M433.7,352.8c0,44.6-36.3,80.9-80.9,80.9H159.2c-44.6,0-80.9-36.3-80.9-80.9V159.2
		c0-44.6,36.3-80.9,80.9-80.9h193.6c44.6,0,80.9,36.3,80.9,80.9L433.7,352.8L433.7,352.8z"/>
	<path d="M256,144.7c-61.4,0-111.3,49.9-111.3,111.3c0,61.4,49.9,111.3,111.3,111.3S367.3,317.4,367.3,256
		C367.3,194.6,317.4,144.7,256,144.7z M256,329c-40.2,0-73-32.7-73-73c0-40.2,32.7-73,73-73s73,32.7,73,73
		C329,296.2,296.2,329,256,329z"/>
	<path d="M372,112.2c-7.4,0-14.6,3-19.9,8.2c-5.2,5.2-8.3,12.5-8.3,19.9c0,7.4,3,14.6,8.3,19.9c5.2,5.2,12.5,8.2,19.9,8.2
		c7.4,0,14.6-3,19.9-8.2c5.2-5.2,8.2-12.5,8.2-19.9c0-7.4-3-14.7-8.2-19.9C386.7,115.2,379.4,112.2,372,112.2z"/>
</g>
</svg>
