<svg version="1.1" class="icon__vector" xmlns="http://www.w3.org/2000/svg" xmlns:xlink="http://www.w3.org/1999/xlink" x="0px" y="0px"
	 viewBox="0 0 512 512" style="enable-background:new 0 0 512 512;" xml:space="preserve">
<title>LinkedIn</title>
<path d="M142.5,183.4v268.4H53.1V183.4H142.5z M148.2,100.5c0.2,13.2-4.4,24.2-13.6,33.1s-21.5,13.3-36.7,13.3h-0.6
	c-14.8,0-26.7-4.4-35.8-13.3s-13.6-19.9-13.6-33.1c0-13.4,4.7-24.4,13.9-33.1s21.4-13.2,36.5-13.2s27,4.4,36,13.2
	C143.4,76.1,148.1,87.2,148.2,100.5z M464,297.9v153.8h-89.1V308.3c0-18.9-3.7-33.8-11-44.6c-7.3-10.7-18.7-16.1-34.2-16.1
	c-11.4,0-20.9,3.1-28.6,9.4c-7.7,6.2-13.5,13.9-17.2,23.2c-1.9,5.5-3,12.8-3,21.9v149.8h-89.1c0.4-72,0.6-130.4,0.6-175.2
	s-0.1-71.5-0.3-80.1l-0.3-13h89.1v39h-0.5c3.6-5.8,7.3-10.8,11.1-15.2c3.8-4.3,8.9-9.1,15.3-14c6.4-5.1,14.2-9,23.6-11.8
	c9.3-2.8,19.6-4.2,31-4.2c30.9,0,55.7,10.2,74.5,30.7C454.6,228.4,464,258.5,464,297.9z"/>
</svg>
