<svg version="1.1" class="icon__vector" xmlns="http://www.w3.org/2000/svg" xmlns:xlink="http://www.w3.org/1999/xlink" x="0px" y="0px"
	 viewBox="0 0 512 512" style="enable-background:new 0 0 512 512;" xml:space="preserve">
<path style="fill:#010202;" d="M456.9,190.5c0-0.2-0.1-0.5-0.1-0.8c-0.1-0.5-0.2-1-0.3-1.4c-0.1-0.3-0.2-0.6-0.3-0.8
	c-0.1-0.4-0.3-0.8-0.4-1.2c-0.1-0.3-0.3-0.6-0.4-0.8c-0.2-0.4-0.4-0.8-0.6-1.1c-0.2-0.3-0.3-0.5-0.5-0.8c-0.2-0.4-0.5-0.7-0.7-1.1
	c-0.2-0.2-0.4-0.5-0.6-0.7c-0.3-0.3-0.5-0.6-0.8-0.9c-0.2-0.2-0.5-0.5-0.7-0.7c-0.3-0.3-0.6-0.6-1-0.8c-0.2-0.2-0.5-0.4-0.8-0.6
	c-0.1-0.1-0.2-0.2-0.3-0.2L266.6,56.6c-5.8-3.9-13.3-3.9-19.1,0L64.7,178.5c-0.1,0.1-0.2,0.2-0.3,0.2c-0.3,0.2-0.5,0.4-0.8,0.6
	c-0.3,0.3-0.7,0.5-1,0.8c-0.2,0.2-0.5,0.4-0.7,0.7c-0.3,0.3-0.6,0.6-0.9,0.9c-0.2,0.2-0.4,0.5-0.6,0.7c-0.2,0.3-0.5,0.7-0.7,1.1
	c-0.2,0.3-0.3,0.5-0.5,0.8c-0.2,0.4-0.4,0.8-0.6,1.1c-0.1,0.3-0.3,0.6-0.4,0.8c-0.2,0.4-0.3,0.8-0.5,1.2c-0.1,0.3-0.2,0.5-0.3,0.8
	c-0.1,0.5-0.2,1-0.3,1.4c0,0.3-0.1,0.5-0.1,0.8c-0.1,0.7-0.2,1.5-0.2,2.2v121.9c0,0.8,0.1,1.5,0.2,2.2c0,0.2,0.1,0.5,0.1,0.7
	c0.1,0.5,0.2,1,0.3,1.4c0.1,0.3,0.2,0.5,0.3,0.8c0.1,0.4,0.3,0.8,0.5,1.3c0.1,0.3,0.2,0.6,0.4,0.8c0.2,0.4,0.4,0.8,0.6,1.1
	c0.2,0.3,0.3,0.5,0.5,0.8c0.2,0.4,0.5,0.7,0.7,1c0.2,0.3,0.4,0.5,0.6,0.8c0.3,0.3,0.6,0.6,0.9,0.9c0.2,0.2,0.5,0.5,0.7,0.7
	c0.3,0.3,0.6,0.6,1,0.8c0.2,0.2,0.5,0.4,0.8,0.6c0.1,0.1,0.2,0.2,0.3,0.2l182.8,121.9c2.9,1.9,6.2,2.9,9.5,2.9c3.3,0,6.6-1,9.5-2.9
	l182.8-121.9c0.1-0.1,0.2-0.1,0.3-0.2c0.3-0.2,0.5-0.4,0.8-0.6c0.3-0.3,0.7-0.5,1-0.8c0.2-0.2,0.5-0.4,0.7-0.7
	c0.3-0.3,0.6-0.6,0.8-0.9c0.2-0.2,0.4-0.5,0.6-0.8c0.3-0.3,0.5-0.7,0.7-1c0.2-0.3,0.3-0.5,0.5-0.8c0.2-0.4,0.4-0.8,0.6-1.1
	c0.1-0.3,0.3-0.5,0.4-0.8c0.2-0.4,0.3-0.8,0.4-1.3c0.1-0.3,0.2-0.5,0.3-0.8c0.1-0.5,0.2-1,0.3-1.4c0-0.2,0.1-0.5,0.1-0.7
	c0.1-0.7,0.2-1.5,0.2-2.2V192.8C457.1,192,457,191.3,456.9,190.5z M274.3,103l134.7,89.8L348.8,233l-74.5-49.8V103z M239.9,103v80.2
	L165.4,233l-60.2-40.2L239.9,103z M91.4,224.9l43,28.8l-43,28.8V224.9z M239.9,404.4l-134.7-89.8l60.2-40.2l74.5,49.8V404.4z
	 M257.1,294.4l-60.8-40.7l60.8-40.7l60.8,40.7L257.1,294.4z M274.3,404.4v-80.2l74.5-49.8l60.2,40.2L274.3,404.4z M422.7,282.5
	l-43-28.8l43-28.8V282.5z"/>
</svg>
