<svg version="1.1" class="icon__vector" xmlns="http://www.w3.org/2000/svg" xmlns:xlink="http://www.w3.org/1999/xlink" x="0px" y="0px"
	 viewBox="0 0 512 512" style="enable-background:new 0 0 512 512;" xml:space="preserve">
<title>GitHub</title>
<path d="M256,21.9c-132.5,0-240,107.5-240,240c0,106,68.8,196,164.1,227.7
	c12,2.2,16.4-5.2,16.4-11.6c0-5.7-0.2-20.8-0.3-40.8c-66.8,14.5-80.8-32.2-80.8-32.2C104.4,377.4,88.7,370,88.7,370
	c-21.8-14.9,1.6-14.6,1.6-14.6c24.1,1.7,36.8,24.7,36.8,24.7c21.4,36.7,56.2,26.1,69.8,19.9c2.2-15.5,8.4-26.1,15.2-32.1
	c-53.3-6.1-109.3-26.6-109.3-118.6c0-26.2,9.4-47.6,24.7-64.4c-2.5-6.1-10.7-30.5,2.4-63.5c0,0,20.2-6.5,66,24.6
	c19.1-5.3,39.7-8,60.1-8.1c20.4,0.1,40.9,2.8,60.1,8.1c45.8-31.1,65.9-24.6,65.9-24.6c13.1,33,4.9,57.4,2.4,63.5
	c15.4,16.8,24.7,38.2,24.7,64.4c0,92.2-56.1,112.5-109.6,118.4c8.6,7.4,16.3,22.1,16.3,44.4c0,32.1-0.3,58-0.3,65.8
	c0,6.4,4.3,13.9,16.5,11.5c95.3-31.8,164-121.7,164-227.7C496,129.4,388.5,21.9,256,21.9z"/>
</svg>
