<svg version="1.1" class="icon__vector" xmlns="http://www.w3.org/2000/svg" xmlns:xlink="http://www.w3.org/1999/xlink" x="0px" y="0px"
	 viewBox="0 0 512 512" style="enable-background:new 0 0 512 512;" xml:space="preserve">
<title>Drupal</title>
<g>
	<path d="M339.5,87.2c0,0-29.4-12.2-45.8-23.1c0,0-20.7-12.7-56.9-59.3c0,0,0.8,53-55.3,79.9C93.5,122,38.1,195.2,38.1,289.4
		c0,120.3,97.5,217.9,217.9,217.9s217.9-97.5,217.9-217.9C473.9,144.7,339.5,87.2,339.5,87.2z M358,465.9c0,0-70.6,36.2-123.8-0.8
		c-7.7-5.3-5.8-22.2,14.9-10.1c0,0,44.1,32.4,114.1-6.5C368.6,445.4,375.3,456.1,358,465.9z M278.7,420.1c0,0,20.9-26.8,49-22.5
		c0,0,17.9-1.3,28.3,19.4c0,0,6,15.3-8,11.4c-6.9-1.9,1.9-14.3-23.8-17.3c-18.9-2.2-27.2,13.4-40.8,19.6
		C280.8,432.2,273.5,431.6,278.7,420.1z M415.8,420.4c0,0-10.9,3.7-22.8-8.6c0,0-34-38.6-50.7-44.9c0,0-9.7-3.8-22.5,0.9
		c0,0-8.4,0.9-42.6,23.6c0,0-57.6,36-86.7,31.7c0,0-64.8,1.7-57-67.4c0,0,13.5-77.8,104.6-60.5c0,0,19.9,4.3,57,32.8
		c0,0,24.5,18.9,38,18.5c0,0,10.5,1,32.3-12.8c0,0,44.4-34.3,60-33.3c0.4,0,31.4-3.4,31.4,46.5C456.7,346.9,457.3,401.9,415.8,420.4
		z"/>
</g>
</svg>
