<svg version="1.1" class="icon__vector" xmlns="http://www.w3.org/2000/svg" xmlns:xlink="http://www.w3.org/1999/xlink" x="0px" y="0px"
	 viewBox="0 0 512 512" style="enable-background:new 0 0 512 512;" xml:space="preserve">
<title>Twitter</title>
<g>
	<path d="M503,102.8c-18.2,8.1-37.7,13.5-58.2,16c20.9-12.5,37-32.4,44.6-56.1c-19.6,11.6-41.3,20-64.4,24.6
		c-18.5-19.7-44.8-32-74-32c-56,0-101.3,45.4-101.3,101.3c0,7.9,0.9,15.7,2.6,23.1c-84.2-4.2-158.9-44.6-208.9-105.9
		c-8.7,15-13.7,32.4-13.7,51c0,35.2,17.9,66.2,45.1,84.4c-16.6-0.5-32.2-5.1-45.9-12.7c0,0.4,0,0.8,0,1.3
		c0,49.1,34.9,90.1,81.3,99.4c-8.5,2.3-17.5,3.6-26.7,3.6c-6.5,0-12.9-0.6-19.1-1.8c12.9,40.3,50.3,69.6,94.7,70.4
		c-34.7,27.2-78.4,43.4-125.9,43.4c-8.2,0-16.2-0.5-24.2-1.4c44.9,28.8,98.1,45.5,155.4,45.5c186.4,0,288.4-154.4,288.4-288.4
		c0-4.4-0.1-8.8-0.3-13.1C472.2,141,489.4,123.1,503,102.8z"/>
</g>
</svg>
